<svg preserveAspectRatio="none" width="100%" height="100%" overflow="visible" style="display: block;" viewBox="0 0 100 100" fill="none" xmlns="http://www.w3.org/2000/svg">
<g id="&#215;&#151;&#215;&#149;&#215;&#146;&#215;&#153;&#215;&#157;">
<g id="Color">
<g id="Union" opacity="0">
<path d="M81.7546 23.1018V48.5231H73.5879C73.3009 42.8611 71.037 37.3055 66.7268 33C62.4907 28.7639 57.0416 26.5 51.4861 26.1528V18.2546H62.9259C63.75 18.2546 64.4259 17.5787 64.4259 16.7546C64.4259 16.5463 64.3657 16.3657 64.3055 16.1852C64.2916 16.1852 64.2916 16.1713 64.2777 16.1574C64.2176 15.9907 64.1111 15.8426 63.9907 15.7083C63.9768 15.6944 63.9629 15.6806 63.9444 15.6806C63.8842 15.6204 63.824 15.5602 63.7638 15.5139C62.3657 14.4352 61.7083 12.6759 62.037 10.9352C62.3981 9.10185 63.8379 7.64814 65.625 7.28703C67.0648 7 68.4768 7.34722 69.574 8.25C70.6574 9.13426 71.2685 10.4444 71.2685 11.838C71.2685 13.3102 70.5926 14.6898 69.4351 15.5602C68.9074 15.9491 68.699 16.6111 68.9074 17.2268C69.1018 17.8426 69.6898 18.2639 70.3333 18.2639H76.8657C79.5555 18.2639 81.7453 20.4398 81.7453 23.1157L81.7546 23.1018Z" fill="var(--fill-0, #83DFE8)"/>
<path d="M36.0046 82.1991C35.5833 82.6343 35.449 83.2778 35.6898 83.8333C35.8101 84.1343 36.0185 84.375 36.2731 84.537C37.6389 85.6157 38.2685 87.3611 37.9398 89.088C37.5926 90.9028 36.1527 92.375 34.3518 92.7361C32.912 93.0231 31.5139 92.6759 30.4166 91.7731C29.3333 90.8889 28.7037 89.5648 28.7037 88.1713C28.7037 86.7778 29.3472 85.4074 30.4768 84.5092C30.6851 84.375 30.8657 84.162 31.0046 83.9259C31.2453 83.4167 31.199 82.8148 30.8564 82.3472C30.6157 82.0324 30.2546 81.8194 29.8657 81.7639C29.7453 81.75 29.6389 81.75 29.5185 81.7639H23.1064C20.4166 81.7639 18.2407 79.5741 18.2407 76.8981V51.5231H26.4074C26.8148 56.9722 29.0787 62.3194 33.2407 66.4768C37.4768 70.713 42.9259 72.9768 48.4814 73.3241V81.7639H37.1759C36.7546 81.7176 36.3333 81.8843 36.0046 82.1991Z" fill="var(--fill-0, #83DFE8)"/>
</g>
<g id="Union_2" opacity="0">
<path d="M48.4815 18.25V26.1481C42.9259 26.4954 37.4768 28.7593 33.2407 32.9954C28.9444 37.3055 26.6805 42.8611 26.3796 48.5185H18.2407V37.0926C18.2407 36.4491 17.8333 35.8611 17.2176 35.6667C16.6018 35.4583 15.9398 35.6667 15.5509 36.1759C14.4398 37.6157 12.5926 38.2917 10.8981 37.963C9.11108 37.6157 7.62496 36.1481 7.26385 34.3611C6.97682 32.9352 7.31015 31.537 8.22682 30.4259C9.11108 29.3472 10.4351 28.713 11.8287 28.713C13.2222 28.713 14.6805 29.4028 15.537 30.5602C15.9259 31.0694 16.6018 31.2963 17.2176 31.088C17.8333 30.8796 18.2407 30.3055 18.2407 29.662V23.1018C18.2407 20.4305 20.4166 18.25 23.1064 18.25H48.4815Z" fill="var(--fill-0, #E6F2F7)" fill-opacity="0.11"/>
<path d="M91.787 69.5741C90.8842 70.6574 89.5787 71.287 88.1666 71.287C86.7546 71.287 85.3148 70.5972 84.4583 69.4398C84.0694 68.9306 83.3935 68.7176 82.7777 68.9306C82.162 69.125 81.7546 69.6944 81.7546 70.3426V76.9028C81.7546 79.5741 79.5601 81.7546 76.875 81.7546H51.4861V73.3333C57.0416 72.9861 62.4907 70.7222 66.7268 66.4861C70.8842 62.3287 73.1527 56.9815 73.574 51.5324H81.7592V62.9444C81.7592 63.588 82.1666 64.162 82.7824 64.3565C83.3842 64.5648 84.0602 64.3704 84.449 63.8472C85.3657 62.662 86.7176 61.9861 88.1713 61.9861C88.5 61.9861 88.8009 62.0139 89.1018 62.0741C90.8889 62.4028 92.375 63.8889 92.7361 65.662C93.0231 67.088 92.6898 68.4861 91.7916 69.5787L91.787 69.5741Z" fill="var(--fill-0, #E6F2F7)" fill-opacity="0.11"/>
</g>
<g id="Union_3" opacity="0">
<path d="M61.4583 45.0833L49.9861 51.162L38.5139 45.0833L49.9861 39L61.4583 45.0833Z" fill="var(--fill-0, #5CEBBE)"/>
<path d="M58.1991 50.2176V57.6944H41.787V50.2176L49.2778 54.1944C49.5046 54.3148 49.7454 54.375 49.9815 54.375C50.2176 54.375 50.463 54.3148 50.6852 54.1944L58.1944 50.2176H58.1991Z" fill="var(--fill-0, #5CEBBE)"/>
</g>
</g>
<g id="Outline">
<path d="M95.6759 65.0694C95.0741 62.0648 92.6574 59.6805 89.6713 59.1065C88.0926 58.7916 86.25 59.0324 84.7592 59.7685V23.1018C84.7592 18.7778 81.2176 15.25 76.875 15.25H73.4815C74.0092 14.1991 74.2778 13.0278 74.2778 11.8287C74.2778 9.53239 73.2731 7.38424 71.4861 5.91202C69.6991 4.45368 67.3565 3.88424 65.0463 4.33331C62.0741 4.91665 59.6852 7.33794 59.1018 10.3565C58.7731 12.0694 59.0417 13.7639 59.7778 15.25H23.1065C18.7685 15.25 15.2407 18.7778 15.2407 23.1018V26.5231C14.1898 25.9953 13.0185 25.7129 11.8333 25.7129C9.52314 25.7129 7.3611 26.7361 5.90277 28.5185C4.43055 30.3055 3.86111 32.662 4.32407 34.9583C4.92592 37.9444 7.34259 40.3333 10.3287 40.9028C11.9352 41.2176 13.75 40.9907 15.2407 40.2407V76.8935C15.2407 81.2176 18.7685 84.7592 23.1065 84.7592H26.5C25.9907 85.7963 25.7037 86.9537 25.7037 88.1666C25.7037 90.4768 26.7268 92.625 28.5093 94.0972C29.8889 95.2222 31.6018 95.824 33.375 95.824C33.9028 95.824 34.4259 95.7778 34.9352 95.6759C37.9213 95.0741 40.3241 92.6574 40.8981 89.6389C41.213 87.9444 40.9583 86.2315 40.2222 84.7592H49.9815L49.9954 84.7453H76.8704C81.2083 84.7453 84.7546 81.2315 84.7546 76.8935V73.4861C85.8055 73.9953 86.9768 74.2824 88.162 74.2824C90.4722 74.2824 92.6342 73.2592 94.1065 71.4768C95.5648 69.6898 96.1342 67.3611 95.6667 65.0648L95.6759 65.0694ZM51.4861 18.25H62.9259C63.75 18.25 64.4259 17.5741 64.4259 16.75C64.4259 16.5416 64.3657 16.3611 64.3055 16.1805C64.2916 16.1805 64.2916 16.1666 64.2778 16.1528C64.2176 15.9861 64.1111 15.8379 63.9907 15.7037C63.9768 15.6898 63.9629 15.6759 63.9444 15.6759C63.8842 15.6157 63.8241 15.5555 63.7639 15.5092C62.3657 14.4305 61.7083 12.6713 62.037 10.9305C62.3981 9.0972 63.8379 7.6435 65.625 7.28239C67.0648 6.99535 68.4768 7.34257 69.5741 8.24535C70.6574 9.12961 71.2685 10.4398 71.2685 11.8333C71.2685 13.3055 70.5926 14.6852 69.4352 15.5555C68.9074 15.9444 68.6991 16.6065 68.9074 17.2222C69.1018 17.8379 69.6898 18.2592 70.3333 18.2592H76.8657C79.5555 18.2592 81.7454 20.4352 81.7454 23.1111V48.5324H73.5787C73.2916 42.8704 71.0278 37.3148 66.7176 33.0092C62.4815 28.7731 57.0324 26.5092 51.4768 26.162V18.2639L51.4861 18.25ZM17.2222 35.6666C16.6065 35.4583 15.9444 35.6666 15.5555 36.1759C14.4444 37.6157 12.5972 38.2916 10.9028 37.9629C9.11573 37.6157 7.62962 36.1481 7.26851 34.3611C6.98148 32.9352 7.31481 31.537 8.23148 30.4259C9.11573 29.3472 10.4398 28.7129 11.8333 28.7129C13.2268 28.7129 14.6852 29.4028 15.5417 30.5602C15.9305 31.0694 16.6065 31.2963 17.2222 31.0879C17.838 30.8796 18.2454 30.3055 18.2454 29.662V23.1018C18.2454 20.4305 20.4213 18.25 23.1111 18.25H48.4861V26.1481C42.9305 26.4953 37.4815 28.7592 33.2454 32.9953C28.9491 37.3055 26.6852 42.8611 26.3843 48.5185H18.2454V37.0926C18.2454 36.4491 17.838 35.8611 17.2222 35.6666ZM48.4815 81.7639H37.1759C36.7546 81.7176 36.3333 81.8842 36.0046 82.1991C35.5833 82.6342 35.4491 83.2778 35.6898 83.8333C35.8102 84.1342 36.0185 84.375 36.2731 84.537C37.6389 85.6157 38.2685 87.3611 37.9398 89.0879C37.5926 90.9027 36.1528 92.375 34.3518 92.7361C32.912 93.0231 31.5139 92.6759 30.4167 91.7731C29.3333 90.8889 28.7037 89.5648 28.7037 88.1713C28.7037 86.7778 29.3472 85.4074 30.4768 84.5092C30.6852 84.375 30.8657 84.162 31.0046 83.9259C31.2454 83.4166 31.1991 82.8148 30.8565 82.3472C30.6157 82.0324 30.2546 81.8194 29.8657 81.7639C29.7454 81.75 29.6389 81.75 29.5185 81.7639H23.1065C20.4167 81.7639 18.2407 79.5741 18.2407 76.8981V51.5231H26.4074C26.8148 56.9722 29.0787 62.3194 33.2407 66.4768C37.4768 70.7129 42.9259 72.9768 48.4815 73.3241V81.7639ZM49.9861 70.3981C44.6852 70.3981 39.4028 68.3842 35.375 64.3472C31.4259 60.3981 29.412 55.2315 29.338 50.037L29.3518 50.0231L29.338 49.9953C29.2778 44.6203 31.2731 39.2129 35.375 35.1157C39.3981 31.0926 44.6991 29.0787 49.9861 29.0787C55.2731 29.0787 60.5694 31.0926 64.6111 35.1157C68.5139 39.0324 70.662 44.2129 70.662 49.7407C70.662 49.8148 70.6481 49.8889 70.6481 49.9676C70.6481 49.9815 70.6342 49.9953 70.6342 50.0278C70.6342 50.0416 70.6481 50.0417 70.6481 50.0555C70.5602 55.4629 68.4398 60.5231 64.6111 64.3518C60.5741 68.3889 55.287 70.4028 49.9861 70.4028V70.3981ZM91.787 69.5741C90.8842 70.6574 89.5787 71.287 88.1667 71.287C86.7546 71.287 85.3148 70.5972 84.4583 69.4398C84.0694 68.9305 83.3935 68.7176 82.7778 68.9305C82.162 69.125 81.7546 69.6944 81.7546 70.3426V76.9028C81.7546 79.5741 79.5602 81.7546 76.875 81.7546H51.4861V73.3333C57.0417 72.9861 62.4907 70.7222 66.7268 66.4861C70.8842 62.3287 73.1528 56.9815 73.5741 51.5324H81.7592V62.9444C81.7592 63.5879 82.1667 64.162 82.7824 64.3565C83.3842 64.5648 84.0602 64.3703 84.4491 63.8472C85.3657 62.662 86.7176 61.9861 88.1713 61.9861C88.5 61.9861 88.8009 62.0139 89.1018 62.0741C90.8889 62.4028 92.375 63.8889 92.7361 65.662C93.0231 67.0879 92.6898 68.4861 91.7916 69.5787L91.787 69.5741Z" fill="var(--fill-0, #027DB3)"/>
<path d="M65.375 43.7592L50.6898 35.9676C50.2546 35.7407 49.7268 35.7407 49.2778 35.9676L34.6065 43.7592C34.1111 44.0139 33.8102 44.5231 33.8102 45.0787C33.8102 45.6342 34.1111 46.1435 34.6065 46.3981L38.7824 48.6203V59.1898C38.7824 60.0324 39.4583 60.6898 40.2824 60.6898H59.6944C60.5185 60.6898 61.1944 60.0278 61.1944 59.1898V48.6203L65.3704 46.3981C65.8518 46.1435 66.1667 45.6342 66.1667 45.0787C66.1667 44.5231 65.8518 44.0139 65.3704 43.7592H65.375ZM58.1991 57.6944H41.787V50.2176L49.2778 54.1944C49.5046 54.3148 49.7454 54.375 49.9815 54.375C50.2176 54.375 50.463 54.3148 50.6852 54.1944L58.1944 50.2176V57.6944H58.1991ZM49.9861 51.162L38.5139 45.0833L49.9861 39.0046L61.4583 45.0833L49.9861 51.162Z" fill="var(--fill-0, #027DB3)"/>
</g>
</g>
</svg>
