<svg preserveAspectRatio="none" width="100%" height="100%" overflow="visible" style="display: block;" viewBox="0 0 100 100" fill="none" xmlns="http://www.w3.org/2000/svg">
<g id="&#215;&#151;&#215;&#160;&#215;&#153;&#215;&#148;">
<path id="Union" opacity="0" d="M50 15.0278C30.7269 15.0278 15.0278 30.7222 15.0278 50C15.0278 69.2778 30.7222 84.9722 50 84.9722C69.2778 84.9722 84.9722 69.2778 84.9722 50C84.9722 30.7222 69.2778 15.0278 50 15.0278ZM50 79.3935C33.7963 79.3935 20.6065 66.2037 20.6065 50C20.6065 33.7963 33.7963 20.6065 50 20.6065C66.2037 20.6065 79.3935 33.7963 79.3935 50C79.3935 66.2037 66.2037 79.3935 50 79.3935Z" fill="var(--fill-0, #83DFE8)"/>
<path id="Union_2" opacity="0" d="M53.2269 34.4583H42.6667V65.5463H47.5741V54.0139C47.5741 53.3194 48.1296 52.75 48.838 52.75H53.2269C58.2731 52.75 62.3843 48.6528 62.3843 43.6065C62.3843 38.5602 58.2731 34.463 53.2269 34.463V34.4583ZM53.4537 48.6991H47.75C47.0556 48.6991 46.4861 48.1296 46.4861 47.4352V39.7685C46.4861 39.0602 47.0556 38.5046 47.75 38.5046H53.4537C56.2593 38.5046 58.5509 40.7917 58.5509 43.6019C58.5509 46.412 56.2639 48.6991 53.4537 48.6991Z" fill="var(--fill-0, #5CEBBE)"/>
<g id="Outline">
<path d="M50 12.5C29.3194 12.5 12.5 29.3194 12.5 50C12.5 70.6805 29.3194 87.5 50 87.5C70.6805 87.5 87.5 70.6805 87.5 50C87.5 29.3194 70.6805 12.5 50 12.5ZM50 84.9722C30.7268 84.9722 15.0278 69.2778 15.0278 50C15.0278 30.7222 30.7268 15.0278 50 15.0278C69.2731 15.0278 84.9722 30.7222 84.9722 50C84.9722 69.2778 69.2778 84.9722 50 84.9722Z" fill="var(--fill-0, #027DB3)"/>
<path d="M50 20.6065C33.7963 20.6065 20.6065 33.7963 20.6065 50C20.6065 66.2037 33.7963 79.3935 50 79.3935C66.2037 79.3935 79.3935 66.2037 79.3935 50C79.3935 33.7963 66.2037 20.6065 50 20.6065ZM50 76.8611C35.1898 76.8611 23.1389 64.8102 23.1389 50C23.1389 35.1898 35.1898 23.1389 50 23.1389C64.8102 23.1389 76.8611 35.1898 76.8611 50C76.8611 64.8102 64.8102 76.8611 50 76.8611Z" fill="var(--fill-0, #027DB3)"/>
<path d="M53.2268 31.9259H41.4028C40.6944 31.9259 40.1389 32.4815 40.1389 33.1898V66.8056C40.1389 67.5139 40.6944 68.0694 41.4028 68.0694H48.838C49.5324 68.0694 50.1019 67.5139 50.1019 66.8056V55.2731H53.2268C59.6667 55.2731 64.912 50.037 64.912 43.5972C64.912 37.1574 59.662 31.9213 53.2268 31.9213V31.9259ZM53.2268 52.7454H48.838C48.1296 52.7454 47.5741 53.3148 47.5741 54.0093V65.5417H42.6667V34.4537H53.2268C58.2731 34.4537 62.3843 38.5509 62.3843 43.5972C62.3843 48.6435 58.2731 52.7407 53.2268 52.7407V52.7454Z" fill="var(--fill-0, #027DB3)"/>
<path d="M53.4537 38.5046H47.75C47.0556 38.5046 46.4861 39.0602 46.4861 39.7685V47.4352C46.4861 48.1296 47.0556 48.6991 47.75 48.6991H53.4537C56.2593 48.6991 58.5509 46.412 58.5509 43.6018C58.5509 40.7917 56.2639 38.5046 53.4537 38.5046ZM53.4537 46.1667H49.0139V41.0324H53.4537C54.8704 41.0324 56.0231 42.1852 56.0231 43.6018C56.0231 45.0185 54.8704 46.1713 53.4537 46.1713V46.1667Z" fill="var(--fill-0, #027DB3)"/>
</g>
</g>
</svg>
